<svg xmlns="http://www.w3.org/2000/svg" width="600" height="200"><path fill="#233448" d="M0 0h600v200H0z"/><path fill="#11a292" d="M175 88c2.723 3.404 5.275 6.743 7.75 10.313l1.86 2.675L186 103c3.318-.703 4.662-1.556 7-4h2v-2a119 119 0 0 1 5.5-4.625l3.094-2.477L206 88c4.007 3.736 6.937 7.641 9.875 12.25 3.217 5.02 6.644 9.75 10.335 14.433 2.95 3.818 5.674 7.786 8.415 11.754 4.623 6.653 9.298 13.26 14.063 19.813a909 909 0 0 1 12.625 17.813l1.438 2.077C266 170.877 266 170.877 266 172H128c2.822-4.939 5.026-8.464 8.625-12.625 4.09-4.793 8.01-9.684 11.808-14.711 1.884-2.493 3.794-4.93 5.82-7.309L156.25 135l1.766-2c1.27-2.024 1.27-2.024.312-4.465-1.25-2.385-2.494-4.759-3.828-7.097A178 178 0 0 1 150 113z"/><path fill="#12a191" d="M144 44c3.474 1.158 3.887 1.896 5.848 4.86l1.584 2.382 1.63 2.508 1.643 2.46c2.54 3.857 4.675 7.447 6.295 11.79l-2.59 2.555-3.347 3.32-1.71 1.684c-3.052 2.933-3.052 2.933-5.353 6.441h-2l-.184-2.703-.254-3.547c-.08-1.16-.162-2.32-.246-3.516A43 43 0 0 0 144 65l-.927 1.474c-6.387 10.152-12.81 20.276-19.354 30.327a642 642 0 0 0-5.5 8.617C112.683 114.193 106.865 122.213 100 130l-2.11 2.512c-3.506 4.151-3.506 4.151-4.89 5.488h-2a112 112 0 0 1-4.125-6.5l-1.129-1.879A780 780 0 0 1 83 125c-2.881 1.334-5.213 2.843-7.652 4.871l-2.084 1.724-2.201 1.843-2.288 1.899a1865 1865 0 0 0-15.237 12.824C48.415 152.511 43.213 156.76 38 161q-3.095 2.53-6.187 5.063L27 170c0-3.609.78-4.44 2.875-7.312.643-.893 1.286-1.785 1.95-2.704L34 157q2.346-3.28 4.688-6.562l2.59-3.622a3100 3100 0 0 0 19.893-28.224q3.52-5.037 7.055-10.064 1.794-2.556 3.58-5.119c1.743-2.497 3.498-4.985 5.257-7.472l1.587-2.29c2.74-3.844 4.965-6.58 9.35-8.647q3.473 3.683 6.938 7.375l1.998 2.117 1.904 2.031 1.761 1.873C102 100 102 100 103 102l3 1 .832-2.235c1.092-2.584 2.296-4.687 3.863-7.003l1.647-2.45c.882-1.3.882-1.3 1.783-2.624l3.79-5.63 2.012-2.98c3.545-5.263 7.057-10.547 10.573-15.828l3.906-5.86 1.824-2.736z"/><path fill="#33ccd9" d="M218 13c4.563.477 6.54 2.047 9.688 5.313l2.324 2.363c1.809 2.115 3.092 3.7 3.988 6.324-.375 2.25-.375 2.25-1 4l-2.082.043c-2.718.144-5.26.363-7.918.957-1.718 2.252-1.718 2.252-3 5-1.73 1.195-1.73 1.195-3.812 2.375C208.632 43.839 205.1 49.955 202 58l-3.538-.402c-4.65.02-6.692 1.686-9.94 4.852l-1.916 1.988-2.092 2.074a738 738 0 0 0-6.756 6.843q-2.361 2.373-4.727 4.74-4.947 4.965-9.86 9.965c-4.197 4.271-8.419 8.519-12.65 12.758q-4.877 4.892-9.738 9.803a3331 3331 0 0 1-4.667 4.701q-3.26 3.287-6.498 6.593l-1.952 1.957c-3.149 3.232-5.242 5.76-6.666 10.128-2 2-2 2-4.5 2.813-2.719.968-2.719.968-3.687 3.687L112 143c-2 2-2 2-4.625 2.125L105 145l-1 3a141 141 0 0 1-5 5l-2.812 2.813L94 158c1.125 2.972 2.223 5.334 4 8 .125 2.688.125 2.688 0 5-2.187.25-2.187.25-5 0l-2.562-2.062c-2.175-2.183-2.175-2.183-4.38-1.778-2.512 1.025-3.656 2.304-5.433 4.34-2.525 2.667-3.397 3.438-7.062 4.438L71 176c1.372-4.065 3.22-6.674 6.125-9.812l2.195-2.395L81 162c-1.11-2.276-2.241-4.371-3.625-6.5C76 153 76 153 76 149c5.528.628 5.528.628 8.063 2.625 1.854 1.618 1.854 1.618 4.234 1.254 3.533-1.149 5.288-2.933 7.89-5.566l2.606-2.575c2.323-2.882 3.092-5.255 4.207-8.738l2.938-1.437c3.402-1.325 3.402-1.325 4.562-5.063 1.877-4.38 3.334-4.46 7.5-6.5 2.574-2.177 2.574-2.177 4.938-4.687l2.593-2.672a253 253 0 0 0 7.996-8.95c1.437-1.65 2.838-3.235 4.473-4.691h2l.716-1.706c1.582-2.827 3.513-4.73 5.827-6.997l2.756-2.723 2.888-2.824c5.57-5.465 11.038-10.906 16.104-16.842 1.874-2.092 3.852-4.015 5.893-5.943l2.119-2.014q2.16-2.037 4.351-4.039c3.782-3.44 3.782-3.44 5.815-7.966.055-2.13.055-2.13-.469-4.946l3.125-1.105c4.333-1.86 6.863-4.668 9.875-8.208a885 885 0 0 1 3.113-3.507l1.495-1.677C206.18 28.725 209.08 26.4 212 24l1-2c-7.222 3.076-13.296 7.213-19.469 11.99-5.078 3.876-10.312 7.505-16.719 8.51-3.56-.633-5.241-2.003-7.812-4.5-1.467-2.933-1.364-4.72-1-8 2.416-6.3 6.218-9.198 12.207-11.992 7.536-2.72 14.082-3.297 22.043-3.195l2.969.001c7.849.049 7.849.049 11.781 1.186z"/><path fill="#e6e9e7" d="M403 59c10 0 10 0 12.313 1.956l1.472 2.716 1.666 2.953 1.611 3.125 1.717 3.078c4.37 7.953 4.37 7.953 5.221 12.172h3l.38-1.77c.616-2.217 1.415-3.914 2.546-5.91l1.166-2.066 1.22-2.129 1.186-2.105a207 207 0 0 1 2.383-4.09c1.022-1.762 1.912-3.598 2.787-5.438L444 59h10v45h-10l-1-26c-3.745 6.57-3.745 6.57-7.448 13.164l-1.439 2.461-1.444 2.54C431 98 431 98 428.421 98.392 426 98 426 98 424.156 96.093L422.5 93.5l-1.656-2.531L419 88l-5-8-1 23h-10z"/><path fill="#eff2ee" d="M342 59h10l1.038 1.956c1.563 2.935 3.138 5.865 4.712 8.794l1.633 3.078 1.601 2.969 1.46 2.73c1.6 2.544 3.355 4.438 5.556 6.473l.996-1.879c1.02-1.9 2.06-3.791 3.11-5.676 1.369-2.49 2.67-4.98 3.945-7.515q1.096-2.06 2.199-4.118l.974-2.035c1.042-1.882 1.042-1.882 3.776-4.777h10v44h-10V78h-2l-.816 2.191c-1.17 2.775-2.535 5.19-4.122 7.746C373.849 91.56 371.817 95.166 370 99c-2.242.387-2.242.387-5 0-1.664-2.081-2.866-3.881-4.125-6.187l-1.012-1.752A484 484 0 0 1 357 86l-1.742-2.8C354 81 354 81 354 79h-2v24h-10z"/><path fill="#1e384b" d="M144 64h1c.956 3.998 1.104 7.708 1.063 11.813l-.028 3.519L146 82h2l.68-1.672c1.724-3.04 3.945-5.142 6.445-7.578l2.758-2.703L160 68l1 2c-.777 1.727-.777 1.727-1.937 3.625L157 77l4 1 1-5 4 1c-8.64 9.985-18.08 19.177-27.477 28.441-3.615 3.666-7.128 7.427-10.648 11.184l-4.258 4.54-1.887 2.013L120 122l-1.566 1.689C117 125 117 125 114.438 125.813c-2.755 1.002-2.755 1.002-3.626 4.187l-.812 3c-2 2-2 2-4.5 2.75-2.825 1.073-2.825 1.073-3.812 4.375L101 143h-1v-8c-2.463 0-3.852.855-6 2 2.578-3.563 5.173-7.07 8.098-10.36 8.29-9.355 14.486-19.94 21.002-30.57 2.918-4.715 5.931-9.365 8.963-14.007l1.55-2.38c1.457-2.23 2.922-4.457 4.387-6.683l1.667-2.563 1.642-2.503 1.49-2.284zm-42 65-2 4h2l2-4z"/><path fill="#e0e4e3" d="M291 59h11l.044 2.675q.093 4.934.218 9.868.051 2.13.084 4.262c.034 2.049.086 4.096.142 6.144l.08 3.73c.461 3.545 1.271 5.497 3.432 8.321 2.133.64 2.133.64 4.438.375l2.308-.102c3.188-.38 3.188-.38 6.254-1.273 1.164-3.492 1.211-6.391 1.316-10.074l.063-2.072q.097-3.27.183-6.541l.131-4.44q.16-5.436.307-10.873h11c.225 4.498.387 8.993.494 13.495q.067 2.289.185 4.576c.426 8.476.506 14.511-5.027 21.44-3.285 3.53-5.337 5.308-10.254 5.692-8.094.126-14.807-.315-21.273-5.516-4.17-5.273-5.501-9.333-5.418-16.054l.013-2.06c.017-2.15.054-4.298.092-6.448q.024-2.199.042-4.398c.032-3.576.084-7.152.146-10.727"/><path fill="#e6ebe9" d="m281 61-1 8-3.875-1c-4.988-1.107-10.032-1.655-15.125-1l-2 2c.32 2.603.32 2.603 1 5 2.789.954 5.57 1.883 8.414 2.66C274.97 78.472 280.081 80.122 284 86c.463 4.712.47 7.043-1.625 11.313-3.072 3.476-5.924 5.376-10.623 5.972-2.57.118-5.117.124-7.69.09l-2.63.035c-5.568-.025-9.475-.86-14.432-3.41.498-3.735.875-5.812 3-9l1.547.656C258.11 94.17 264.025 94.32 271 94l2-6-3.473-.7-4.59-.987-2.279-.452c-5.601-1.236-9.225-3.2-13.658-6.861-2.006-4.013-1.759-8.66-1-13 1.927-2.695 4.156-4.34 7-6l1.848-1.133c7.685-3.096 16.808-.854 24.152 2.133"/><path fill="#e7ebe9" d="M525 59h11l1 3a282 282 0 0 0 5 5 356 356 0 0 1 4 5l1.582-2.844c5.773-9.69 5.773-9.69 10.465-11.02 2.755.047 5.263.276 7.953.864-1.707 5.227-5.012 9.02-8.455 13.184C555 75.36 553.07 77.84 553 82c2.235 2.962 2.235 2.962 4.098 4.898 2.266 2.504 4.268 5.138 6.277 7.852l2.086 2.797C567 100 567 100 567 103c-3.96.948-7.072 1.171-11 0-3.342-3.087-5.63-6.996-8.004-10.84-1.638-3.196-1.638-3.196-3.996-4.16l-.816 1.64L542 92l-1.34 2.797c-1.68 3.104-3.21 5.653-5.66 8.203-3.828.942-7.142.69-11 0 .97-5.059 3.996-8.63 6.938-12.75.826-1.19.826-1.19 1.67-2.402l1.607-2.27 1.472-2.08L537 82h2c-2.99-5.605-6.56-10.578-10.39-15.645C527 64 527 64 527 62h-2z"/><path fill="#d8dddd" d="m454 118 9.5-.312 2.943-.138c6.263-.1 10.891 1.088 15.557 5.45 2.494 4.248 2.731 8.166 2 13-1.27 2.04-2.594 4.05-4 6 0 3.92 2.877 6.85 5 10v2c-5.035.795-5.035.795-8 0-1.994-2.17-3.538-4.493-5.191-6.93-2.096-2.399-3.128-2.793-6.247-3.132L462 144v10h-8z"/><path fill="#3ec0cf" d="M218 13c2.313.25 2.313.25 5 1l3 4h-15v2l3 1c-.182 3.673-1.178 5.448-3.8 7.867a243 243 0 0 1-3.512 3.008C201.943 35.879 198.826 39.432 196 45h-2v2h-6v6c-2-3-2-3-1.625-5.687L187 45l2.629-.61c4.277-1.764 6.355-4.178 9.309-7.64q1.565-1.772 3.14-3.535l1.514-1.696c2.58-2.783 5.482-5.113 8.408-7.519l1-2c-7.222 3.076-13.296 7.213-19.469 11.99-5.078 3.876-10.312 7.505-16.719 8.51-3.56-.633-5.241-2.003-7.812-4.5-1.467-2.933-1.364-4.72-1-8 2.416-6.3 6.218-9.198 12.207-11.992 7.536-2.72 14.082-3.297 22.043-3.195l2.969.001c7.849.049 7.849.049 11.781 1.186z"/><path fill="#dfe3e2" d="M481 59h39v8h-14v37h-11V68h-13l-1-1z"/><path fill="#e0e5e4" d="M422 118h9c3.112 6.13 6.185 12.255 8.922 18.563 1.89 4.274 3.91 8.489 5.906 12.714C447 152 447 152 447 154h-9l-3-7h-17l-2 7h-9c.609-4.654 2.59-8.405 4.75-12.5a165 165 0 0 0 8.34-19.023C421 120 421 120 422 118"/><path fill="#31cddb" d="m138 102 1 2c-.937 2.125-.937 2.125-2 4h-2l-1 3-3 1c-1.672 1.715-1.672 1.715-3.187 3.813l-1.606 2.082c-1.539 2.279-1.539 2.279-1.207 6.105h3l-2.375 2.188c-2.506 2.684-3.436 4.427-4.625 7.812-2 2-2 2-4.5 2.813-2.719.968-2.719.968-3.687 3.687L112 143c-2 2-2 2-4.625 2.125L105 145l-1 3a141 141 0 0 1-5 5l-2.812 2.813L94 158c1.125 2.972 2.223 5.334 4 8 .125 2.688.125 2.688 0 5-2.187.25-2.187.25-5 0l-2.562-2.062c-2.175-2.183-2.175-2.183-4.38-1.778-2.512 1.025-3.656 2.304-5.433 4.34-2.525 2.667-3.397 3.438-7.062 4.438L71 176c1.372-4.065 3.22-6.674 6.125-9.812l2.195-2.395L81 162c-1.11-2.276-2.241-4.371-3.625-6.5C76 153 76 153 76 149c5.528.628 5.528.628 8.063 2.625 1.854 1.618 1.854 1.618 4.234 1.254 3.533-1.149 5.288-2.933 7.89-5.566l2.606-2.575c2.323-2.882 3.092-5.255 4.207-8.738l2.938-1.437c3.402-1.325 3.402-1.325 4.562-5.063 1.877-4.38 3.334-4.46 7.5-6.5 2.574-2.177 2.574-2.177 4.938-4.687l2.593-2.672a253 253 0 0 0 7.996-8.95c1.428-1.639 2.918-3.173 4.473-4.691"/><path fill="#25d4e3" d="M211 17q2.843-.079 5.688-.125l3.199-.07c4.962.311 7.387 1.452 10.863 5.008 2.093 2.965 3.046 4.611 3.25 8.187-1.629 1.629-3.634 1.16-5.875 1.25-2.713.19-2.713.19-5.125.75-1.718 2.252-1.718 2.252-3 5-1.73 1.195-1.73 1.195-3.812 2.375-5.416 3.152-8.752 7.47-12.188 12.625h-2v4l-2.379.332c-6.003.906-11.183 1.949-16.621 4.668l1-4h3l1-10h6v-2l2-1 1.625-3.062c3.184-5.797 8.108-10.201 13.313-14.188 2.24-1.9 2.754-2.871 3.062-5.75l-4-1z"/><path fill="#cdd3d4" d="M373 119h27v6h-18v7l2.992.184 3.883.254c1.276.08 2.552.162 3.867.246C396 133 396 133 398 134v5h-16v8h18l1 7h-28z"/><path fill="#e0e5e5" d="M354 118c3.504 1.33 5.383 2.383 8 5-.375 2.125-.375 2.125-1 4-1.812.625-1.812.625-4 1l-3-2c-4.692-.684-8.773-.54-13.125 1.375-2.876 4.027-2.603 7.837-1.875 12.625 1.694 3.784 1.694 3.784 5 6a95 95 0 0 0 5.125.063L354 146l1-11h8v16c-8.207 3.338-16.965 5.014-25.437 1.625-4.024-4.121-8.054-8.889-8.856-14.773.547-6.438 3.504-12.608 8.418-16.79 5.436-3.9 10.31-3.56 16.875-3.062"/><path fill="#e2e6e5" d="M464 59h11v44h-11z"/><path fill="#203548" d="M204 101c2.476 2.476 2.466 3.746 2.965 7.172l.481 3.184.492 3.394c1.24 8.216 2.575 16.307 4.546 24.383.6 3.331.6 6.49.516 9.867-4.262-3.636-6.469-7.527-9.043-12.465-4.18-7.77-9.197-15.111-13.957-22.535 3.178-3.223 6.416-6.321 9.813-9.312l2.394-2.114z"/><path fill="#1e3a4d" d="M175 76c1 3 1 3 .188 5.125C174 83 174 83 172 84v3h5v3h-3c-2.493 2.075-2.493 2.075-5.105 4.813a959.822 959.822 0 0 0-6.082 6.188q-1.569 1.59-3.14 3.179A1985 1985 0 0 0 152 112l-2-3c-3.066-.733-3.066-.733-6-1 5.807-7.12 12.363-13.474 18.875-19.937l3.531-3.518Q170.7 80.269 175 76"/><path fill="#eef2ef" d="m455 120 9.813-.187 3.08-.083 2.439-.023 2.491-.048c2.652.415 3.51 1.296 5.177 3.341-3.477 2.143-6.212 2.213-10.25 2.125l-3.266-.055L462 125c.095.848.19 1.696.29 2.57.843 8.933.336 16.587-1.29 25.43h-6z"/><path fill="#1f374b" d="M209 19c-1 2-1 2-4.25 3.5-4.833 2.294-8.872 5.535-13.005 8.883-6.38 5.104-10.729 7.032-18.745 6.617l-1-5c6.124-6.42 12.628-9.311 21-12l2.332-.75c4.652-1.321 8.884-1.42 13.668-1.25"/><path fill="#164255" d="M213 22c-1.567 4.065-4.485 6.463-7.687 9.25-4.32 3.828-8.195 7.689-11.715 12.29-2.08 1.901-3.845 2.115-6.598 2.46l.438 3.125c-.484 4.286-.825 4.688-3.938 7.313A105 105 0 0 1 180 59l1-4h2v-2h2l-1-10h-12l-2-4 1.625 1c3.746 1.577 7.039 1.502 10.84.074 6.5-3.645 12.476-7.796 18.408-12.29C208.52 22 208.52 22 213 22"/><path fill="#e0e6e7" d="M374 119h26v6h-19v8h-1l-1-5-4-1v26h-1z"/><path fill="#edf1ef" d="M436 134c3.938 3.576 6.17 6.831 8.313 11.688l1.55 3.449C447 152 447 152 447 154h-9l-3-9h-15v-4l12-1 1-3c1.563-1.687 1.563-1.687 3-3"/><path fill="#2b948f" d="m135 162 1 3-5 6 130-1-1-6c2.832 2.644 4.218 4.437 6 8H128c4.5-7.875 4.5-7.875 7-10"/><path fill="#323f4d" d="M462 125c9.18-.293 9.18-.293 12 0 2.313 3.47 2.425 4.922 2 9-1.164 1.676-1.164 1.676-3 3-3.704.402-7.263.132-11 0z"/><path fill="#bec5cb" d="M383 59h10v44h-10V78l-2-1h3v25h7V60h-7l-.312 2.313c-.75 2.93-1.523 3.702-3.688 5.687l-1 3h-2c1.566-4.308 3.683-8.062 6-12"/><path fill="#2ad2e0" d="M152 97a159 159 0 0 1-5 6h-2l-.75 1.813c-1.775 3.106-4.092 4.608-7.25 6.187v2h-2v2h-3l-.687 2.188c-1.568 3.359-3.57 5.35-6.313 7.812h-1c.231-5.666 1.67-8.404 5.43-12.617C131 111 131 111 134 110l1-2h2l.563-2.687c1.863-4.295 4.42-6.068 8.437-8.313 3-1 3-1 6 0"/><path fill="#4bbece" d="M210 22c-23.875 19.404-23.875 19.404-33.133 20.305-3.981-.423-5.342-2.335-7.867-5.305l4-1v2c11.465-1.219 19.468-7.557 28.223-14.617C204.527 20.813 206 21.053 210 22"/><path fill="#3cc5d2" d="M158 82v3l-1.937 1.75c-2.714 2.96-2.761 5.325-3.063 9.25l2 1-26 26c0-3.615.892-5.112 3-8h3v-2h2l-1-3 2.25-.687c3.309-1.58 4.545-3.418 6.75-6.313a348 348 0 0 1 5-4l1-2c-3.888 1.047-7.439 2.125-11 4 5.55-6.784 11.764-12.855 18-19"/><path fill="#30d2e0" d="M200 17v2l-3.219.7c-10.163 2.283-10.163 2.283-19.23 7.26-2.08 1.395-4.08 1.808-6.551 2.04.446-3.793.874-5.992 3.762-8.578 7.92-4.68 16.373-3.885 25.238-3.422"/><path fill="#3ebecc" d="m80 158 4 2v3l12 6 1-4c1 1 1 1 1.063 3.563L98 171c-2.187.25-2.187.25-5 0l-2.562-2.062c-2.175-2.183-2.175-2.183-4.38-1.778-2.512 1.025-3.656 2.304-5.433 4.34-2.525 2.667-3.397 3.438-7.062 4.438L71 176c1.709-5.126 4.679-8.038 8.418-11.816 1.857-2.047 1.857-2.047 1.32-4.461z"/><path fill="#1c3a4d" d="M198 34v2l-2 1-1 2-2 1v4l-6 2 .438 3.125c-.484 4.286-.825 4.688-3.938 7.313A105 105 0 0 1 180 59l1-4h2v-2h2l-1-10h-12l-2-4 1.625 1c6.095 2.566 12.504.346 18.375-2 5.371-4 5.371-4 8-4"/><path fill="#c0c7cc" d="M342 59h10l-1 2-8-1v42h7V77h3l-1 26h-10z"/><path fill="#194152" d="m160 68 1 2c-.777 1.727-.777 1.727-1.937 3.625L157 77l4 1 1-5 4 1a1444 1444 0 0 1-4.312 4.875l-2.426 2.742C157 84 157 84 154 86l-6-6z"/><path fill="#134557" d="M212 41c0 3.854-1.332 5.587-3.312 8.875l-1.864 3.117L205 56l-1.516 2.871L202 61c-3.437.188-3.437.188-7 0-2.337.542-2.337.542-4 2l-.937 2.5C189 68 189 68 186.625 69.188L184 70a178 178 0 0 0-4 2 353 353 0 0 1 6-7l1.898-2.246c4.964-5.504 4.964-5.504 8.391-6.258C198.5 56.5 198.5 56.5 202 57c.22-.568.438-1.137.664-1.723 2.321-5.651 5.099-9.884 9.336-14.277"/><path fill="#0f3c51" d="M94 157c3.33 3.83 5.053 8.375 7 13l-3 4-8-2v-2c-4.955.69-7.788 2.782-11.719 5.723-2.644 1.48-4.298 1.524-7.281 1.277l1.742-.781c2.457-1.327 4.307-2.856 6.383-4.719l2.07-1.844A123 123 0 0 0 85 166c2.569.257 3.89.915 5.938 2.5 2.36 1.717 4.199 2.102 7.062 2.5-.963-3.184-1.912-5.86-3.687-8.687L93 160z"/><path fill="#25908b" d="m193 106 3 1c-1.112 3.335-2.474 4.637-5 7l1.298 2.06q2.947 4.688 5.89 9.377l2.04 3.24C204 134.695 207.644 140.743 211 147l-4-1-1-4h-2l-1.062-3.375c-1.723-4.678-4.427-8.37-7.415-12.328C194 124 194 124 193.477 121.766L193 120l-3-1c-1.355-6.404-1.355-6.404.375-9.312L192 108z"/><path fill="#185465" d="m143 108 1 2c-3.304 4.678-6.38 8.536-11 12l-2 3h-2l-.75 1.875C127 129 127 129 124.938 130c-2.15.83-2.15.83-2.688 3.125L122 135h-3l2-2 .84-2.321c1.408-3.252 3.204-5.064 5.73-7.542l2.715-2.686 2.84-2.763q1.433-1.41 2.863-2.823 3.495-3.442 7.012-6.865"/><path fill="#f2f5f2" d="M356 136h6v14l-5 1-2-2 1-1c.072-2.02.084-4.042.063-6.062l-.028-3.348z"/><path fill="#3f4a57" d="M426 127h2q1.005 2.685 2 5.375l1.125 3.023C432 138 432 138 432 140h-11c2.75-9.625 2.75-9.625 5-13"/><path fill="#3dc5d0" d="m138 102 1 2c-.937 2.125-.937 2.125-2 4h-2l-1 3-3 1c-1.635 1.753-1.635 1.753-3.125 3.875l-1.57 2.117c-1.466 2.071-1.466 2.071-2.305 5.008-1.923 2.828-3.858 3.276-7.062 3.938-3.296.636-3.296.636-5.438 3.187L111 132c-.5-2.187-.5-2.187 0-5 1.783-1.374 3.688-2.391 5.648-3.496 6.614-4.23 11.79-10.843 16.844-16.777 1.44-1.65 2.941-3.198 4.508-4.727"/><path fill="#f2f5f2" d="M380 148h20l-1 4h-21v-2h2z"/><path fill="#1c3d4f" d="m154 97 1 3-2 3h7a592 592 0 0 1-2.812 3.375l-1.583 1.898C154 110 154 110 151 112l-1-3-6-1c3.208-3.806 6.407-7.546 10-11"/><path fill="#23988f" d="M170 93c0 5.67-4.775 9.734-8.555 13.64a552 552 0 0 1-5.273 5.16C153.864 114 153.864 114 152 117l-2-4z"/><path fill="#0d4557" d="M217 14v2l-2.18-.063c-18.814-.63-18.814-.63-36.82 4.063h-2v-2c12.77-6.101 27.178-7.035 41-4"/><path fill="#d3d9dc" d="M441 141a66 66 0 0 1 4.125 7.063l1.07 2.097C447 152 447 152 447 154h-9c-1.25-2.687-1.25-2.687-2-6 1.813-2.75 1.813-2.75 4-5z"/><path fill="#3dc4d2" d="m232 25 2 2c-.375 2.125-.375 2.125-1 4l-2.082.043c-2.718.144-5.26.363-7.918.957-1.718 2.252-1.718 2.252-3 5-1.73 1.195-1.73 1.195-3.812 2.375-4.37 2.534-7.089 5.706-10.188 9.625l-2 2c.526-3.788 1.381-6.172 4-9h2v-4l9-2 1-6h12z"/><path fill="#24938b" d="m141 64 3 1c-12.882 20.414-12.882 20.414-19 30-.98-3.076-1.15-3.686.313-6.75L127 86h2l.313-1.625c1.051-3.634 2.42-7.161 5.187-9.812 2.364-2.463 3.249-5.405 4.5-8.563h2z"/><path fill="#134450" d="M207 118c2.297 4.594 3.146 8.81 4.125 13.813l.55 2.658c.984 4.941 1.531 9.492 1.325 14.529-3.394-3.126-5.606-5.565-7-10l2-1z"/><path fill="#d5dadb" d="M455 119c3.375-.117 6.749-.187 10.125-.25l2.883-.102c6.021-.083 9.37.398 13.992 4.352-1 3-1 3-4 5l-.437 3.5L477 135c-2.062 1.438-2.062 1.438-4 2l2-3c.188-2.95.168-5.396-.625-8.25L474 124l2-2c-1.584-1.584-3.277-1.22-5.473-1.316l-2.724-.127-2.865-.12-2.877-.13q-3.53-.16-7.061-.307z"/><path fill="#f3f7f4" d="M381 120h18v4h-18z"/><path fill="#23948c" d="m206 88 2 1v2h-3v2h-2l-.75 1.875C201 97 201 97 199.102 97.906c-2.415 1.257-3.387 2.536-4.977 4.719-2.694 3.32-2.694 3.32-6.5 3.813L185 106l-1-4 2.25.75 2.75.25c2.209-1.875 2.209-1.875 4-4h2v-2a119 119 0 0 1 5.5-4.625l3.094-2.477z"/><path fill="#d4dbda" d="M275 79c5.75 2.5 5.75 2.5 8 7l-9 1v6h-1v-5l-9-2v-1l3.25-.312c3.597-.66 5.208-1.146 7.75-3.688z"/><path fill="#154658" d="M209 19c-1.258 2.516-2.304 2.808-4.812 4l-2.083 1L200 25q-2.002.995-4 2l-1-4-3.25 1.063c-3.537.884-4.498.966-7.75-.063q3.995-1.269 8-2.5l2.254-.723c5.1-1.552 9.416-2.02 14.746-1.777"/><path fill="#278f8a" d="m40 148 2 4-4 2v2h-2v3l3 1-12 10c0-3.696.965-4.68 3.125-7.625 3.408-4.72 6.67-9.515 9.875-14.375"/><path fill="#27908a" d="M144 44c3.662 1.22 4.163 2.368 6.188 5.563l1.605 2.503L153 54l-1 2-5-7c-2.422.43-2.422.43-5 2-1.123 1.93-1.983 3.916-2.887 5.957-1.758 3.226-4.167 4.9-7.113 7.043 1.621-4.798 4.293-8.667 7.125-12.812l1.418-2.1Q142.266 46.54 144 44"/><path fill="#25918b" d="m155 136 1 3c-1.328 2.086-1.328 2.086-3.25 4.375-2.539 3.108-4.755 6.134-6.75 9.625-1.5 2.313-1.5 2.313-3 4h-3l-.875 1.938C138 161 138 161 136 162c1.734-4.072 4.503-7.33 7.25-10.75a4457 4457 0 0 0 4.418-5.562c2.51-3.181 4.922-6.431 7.332-9.688"/><path fill="#2ad4e4" d="M190 18v3l-2.555 1.023-3.32 1.352-3.305 1.336c-2.883 1.12-2.883 1.12-4.82 3.289-2.625.625-2.625.625-5 1l1-4h4l1-3c4.05-3.009 7.983-4 13-4"/><path fill="#29958f" d="M84 125c4.427 1.476 4.914 3.9 7 8v2l3-1 1-3h3l2-6 3 1a1683 1683 0 0 1-3.312 4.313l-1.864 2.425c-1.532 1.9-2.98 3.666-4.824 5.262h-2c-1.727-2.336-1.727-2.336-3.625-5.375l-1.914-3.023C84 127 84 127 84 125"/><path fill="#24948d" d="M87 85c6.15 5.02 11.58 10.371 16 17l3 1 1-2-1 4c-2.437-.812-2.437-.812-5-2l-1-3h-2v-2l-2.375-.687C93 96 93 96 91.813 93.5L91 91c-2.36-2.36-3.779-2.491-7-3z"/><path fill="#104357" d="M115 136c2.063.438 2.063.438 4 1l-1.875.625c-2.972 1.923-3.255 4.04-4.125 7.375l-5 1-1 3-2.375.25c-2.741.46-2.741.46-3.75 2.625L100 154c-1.625 1.75-1.625 1.75-3 3l-2-1q1.654-1.908 3.313-3.812l1.863-2.145c4.4-4.928 4.4-4.928 7.824-5.856 3.278-.943 3.278-.943 4.813-4.25L114 137z"/><path fill="#a5aeb4" d="M355 135h8v16l-2-1 1-14h-6l1 12c-2.995.998-4.173 1.007-7.187.563L346 148v-1l8-1z"/><path fill="#2cd4e2" d="M111 132c1.125 1.563 1.125 1.563 2 4-.875 3.75-.875 3.75-2 7l-6 1-2-4c2.395-2.9 4.312-3.502 8-4z"/><path fill="#258581" d="M144 63h2c1.206 4.672 1.094 9.215 1 14h3l1-4 2 1v-3l4 1-1.715 1.68-2.222 2.195-2.215 2.18C148.943 79.87 148.943 79.87 148 82h-2z"/><path fill="#1d4257" d="M110 128c.688 1.813.688 1.813 1 4-1.615 2.333-2.85 2.953-5.562 3.813-2.77 1.018-2.77 1.018-3.75 4.312L101 143h-1v-10h2l1-3h3l1 2 2-1z"/><path fill="#0f424d" d="M239 130c3.48 4.236 6.67 8.638 9.813 13.125l1.56 2.168 1.459 2.09 1.335 1.887C254 151 254 151 253 154l-1.054-1.497-4.758-6.753-1.659-2.355-1.611-2.286-1.476-2.094c-1.438-2.066-1.438-2.066-3.187-4.084L238 133z"/><path fill="#e3e8eb" d="M444 59h9v33h-1V60h-7l-1 4h-2z"/><path fill="#21978e" d="m48 149 3 1a578 578 0 0 1-5.25 4.5l-2.953 2.531C40 159 40 159 36 159v-3h2v-2c2.5-1.625 2.5-1.625 5-3v2l5-2z"/><path fill="#28d3e2" d="M183 64v3h-4v5l-5 2c-1-3-1-3 .313-6.625 2.46-4.922 3.698-4.557 8.687-3.375"/><path fill="#21938b" d="M153 56c3.255 3.023 5.618 6.257 8 10-1.75 3.875-1.75 3.875-4 5-3-3.625-3-3.625-3-7h2l-1.5-2.875C153 58 153 58 153 56"/><path fill="#27918c" d="M61 119c1 3 1 3 .074 5.043l-1.386 2.144-1.364 2.168L57 130h-2l-.805 1.734c-1.252 2.374-2.689 4.388-4.32 6.516l-1.633 2.14L47 142l-1-2 1.162-1.605 5.213-7.208 1.828-2.525 1.758-2.432 1.619-2.237A194 194 0 0 0 61 119"/><path fill="#209188" d="M199 99c3.375.25 3.375.25 7 1 2.622 3.428 2.202 7.088 2.125 11.25l-.055 3.828L208 118h-1l-2-15c-2.463 0-3.852.855-6 2-1.125-3.75-1.125-3.75 0-6"/><path fill="#134354" d="M94.145 147.406 96 148c-1.856 2.2-3.726 4.227-6 6-4.375.213-6.83-2.192-10-5l3.188.688c4.596.376 6.932-3.044 10.957-2.282"/><path fill="#11424e" d="M193 110h2l1 3h-2c.344 2.473.344 2.473 1 5l2 1c1.688 2.875 1.688 2.875 3 6l-1 3-9-14z"/><path fill="#11485d" d="M184 25v2l-3.375 1.625c-3.07 1.725-3.555 2.217-5.062 5.625L175 37l8-1c-2 2-2 2-3.945 2.195L173 38l-1-5q1.935-1.722 3.875-3.437l2.18-1.934C180.165 25.862 181.23 25 184 25"/><path fill="#114557" d="M194 43c-2.36 2.36-3.779 2.491-7 3l.438 3.125c-.484 4.286-.825 4.688-3.938 7.313A105 105 0 0 1 180 59l1-4h2v-2h2l-1-8c6.625-3.125 6.625-3.125 10-2"/><path fill="#1a4a5e" d="m143 108 1 2q-1.402 1.909-2.812 3.813l-1.583 2.144c-1.448 1.843-2.836 3.507-4.605 5.043h-2c.518-4.104 2.646-5.957 5.563-8.75l2.503-2.422z"/><path fill="#3d4855" d="m544 88 4 2-1 5-1.812.375c-2.45.58-2.45.58-5.188 2.625 1.002-3.793 1.81-6.715 4-10"/><path fill="#3cc7d4" d="m166 86-10 10c-1-4-1-4 0-6h2l1-4c4.75-1.125 4.75-1.125 7 0"/><path fill="#11414e" d="m137 155 3 1q-2.685 3.69-5.375 7.375l-1.54 2.117-1.483 2.031-1.365 1.873C129 171 129 171 127 173l1-6 3-1c.707-1.65 1.366-3.32 2-5a186 186 0 0 1 4-6"/><path fill="#3fb9c9" d="M76 149c4.752.432 6.92 1.328 10 5-4.75-.875-4.75-.875-7-2v3h2l-1 3c-4-4.5-4-4.5-4-9"/><path fill="#e9eeee" d="M356 136h6v14l-5 1-2-2 3-1v-2h2l1-9h-5z"/><path fill="#f0f4f4" d="M388 134h9v4h-10z"/><path fill="#24938c" d="M121 96h2c-1.432 3.937-3.303 7.29-5.562 10.813l-1.88 2.957L114 112h-1v-5l3-1 .25-2.187c.907-3.402 2.35-5.268 4.75-7.813"/><path fill="#0d414a" d="M144 64h1c.904 3.837 1.106 7.375 1.063 11.313l-.028 3.238L146 81h-1l-1-10-4 1v2l-2-1q1.463-2.254 2.938-4.5l1.652-2.531z"/><path fill="#3ec8d9" d="m171 25 1 2-1 2h2l-1 7-3 1c-1-1-1-1-1.25-3.75.276-3.584 1.202-5.349 3.25-8.25"/><path fill="#12434f" d="m150 140 2 1-11 14c-1-3-1-3-.375-4.937 1.738-2.608 3.904-4.162 6.375-6.063l1-2h2z"/><path fill="#3aa9b6" d="m232 25 2 2c-.375 2.125-.375 2.125-1 4l-2.082.043c-2.723.144-5.258.35-7.918.957-1.935 2.39-1.935 2.39-3 5-2.187.813-2.187.813-4 1l1-2h2l1-6h12z"/><path fill="#15404e" d="m49 152-1 3h-2v2a393 393 0 0 1-5 3l-2 2.063c-2.208 2.139-4.107 2.973-7 3.937 3.285-3.394 6.707-6.62 10.188-9.812l2.605-2.395C47 152 47 152 49 152"/><path fill="#0f444e" d="M204 101c3.551 3.551 3.054 8.63 3.063 13.438L207 118c-2.59-2.59-2.374-4.027-2.625-7.625l-.227-3.04L204 105l-5 1z"/><path fill="#27918b" d="m119 82 1 3c-1.074 1.797-1.074 1.797-2.687 3.75-2.86 3.6-5.125 7.21-7.313 11.25h-3z"/><path fill="#f1f3f3" d="M526 60h9v2l-2 1-1 3c-1.875-.187-1.875-.187-4-1-1.25-2.562-1.25-2.562-2-5"/><path fill="#24918b" d="M72 103c1.166 3.497.594 4.93-.898 8.215-1.845 2.988-4.287 4.72-7.102 6.785l-2-1z"/><path fill="#288e89" d="M222 111c5.172 4.687 8.99 10.317 13 16l-3 1-2-6h-2c-1.508-1.898-1.508-1.898-3.125-4.375l-1.633-2.46C222 113 222 113 222 111"/><path fill="#3bc7d5" d="M226 18c4.228 2.907 4.228 2.907 6 5 .375 3.813.375 3.813 0 7h-7v-2h6l-1.094-1.68-1.406-2.195-1.406-2.18C226 20 226 20 226 18"/><path fill="#144a61" d="M94 157c3.253 3.741 5.444 8.313 7 13l-1 2h-5l3-1c-.963-3.184-1.912-5.86-3.687-8.687L93 160z"/><path fill="#3dbdc9" d="m121 130 1 3c-1.798 2.081-2.917 2.972-5.562 3.875-2.682.93-2.682.93-3.75 3.75L112 143h-1c.25-3.375.25-3.375 1-7 2.534-1.942 3.782-2 7-2z"/><path fill="#14454e" d="M167 91h5c-6.15 7.483-6.15 7.483-10 10v-3h2v-4h3z"/><path fill="#c1cace" d="M383 59h9v1h-8l-.312 2.313c-.75 2.93-1.523 3.702-3.688 5.687l-1 3h-2c1.566-4.308 3.683-8.062 6-12"/><path fill="#3bb9c8" d="m183 17 2 1-1.715 1.023-2.222 1.352-2.215 1.336c-1.986 1.166-1.986 1.166-2.848 3.289h-4c1-3 1-3 3.215-4.422l2.722-1.328 2.715-1.36z"/><path fill="#298e89" d="M175 88c2.743 3.2 4.63 6.005 6 10-3-1-3-1-4.187-3.062L176 93h-5z"/><path fill="#38c2d1" d="m80 158 4 2a441 441 0 0 1-.875 4.938l-.492 2.777L82 170l-2 1c-1.606-4.015-.184-7.006 1-11z"/><path fill="#268f8a" d="M240 136c3.925 3.7 7.022 7.49 10 12v2c-3.906-1.256-5.243-3.653-7.117-7.18A72 72 0 0 1 240 136"/><path fill="#239289" d="m68 133 2 1-9 8-2-2c5.482-5.787 5.482-5.787 9-7"/><path fill="#cbd1d3" d="M435 128c2.36 2.36 2.491 3.779 3 7l-2.437.813L433 137l-1 3-2-6 4 1z"/><path fill="#3cb4bf" d="m138 102 1 2c-.937 2.125-.937 2.125-2 4h-2l-1 3-5 1q1.404-1.659 2.813-3.312l1.582-1.864A88 88 0 0 1 138 102"/><path fill="#3db8c8" d="m175 64 1 4-2.375 1.313c-2.842 1.58-2.842 1.58-4.625 4.687l-3-1z"/><path fill="#c9d0d6" d="M555 59c2.602-.293 2.602-.293 5.625-.187l3.04.082L566 59l-1 2-2.625-.25c-4.135.306-6.121 1.771-9.375 4.25 0-3 0-3 2-6"/><path fill="#11424d" d="M254 154c3.646.985 4.802 1.69 6.875 4.938C262 162 262 162 261 165a1994 1994 0 0 1-3.5-4.937l-1.969-2.778C254 155 254 155 254 154"/><path fill="#124f61" d="M115 136c2.063.438 2.063.438 4 1l-1.875.625c-2.973 1.923-3.205 4.048-4.125 7.375-1 1-1 1-4.562 1.063L105 146v-1l2.813-.625c4.016-1.732 4.586-3.416 6.187-7.375z"/><path fill="#14424f" d="M207 88c2.438.75 2.438.75 5 2 .688 2.063.688 2.063 1 4l2 1c.625 2.563.625 2.563 1 5-4.01-3.676-6.453-7.19-9-12"/><path fill="#dee4e7" d="M355 82h3v3h2c1.688 1.188 1.688 1.188 3 3-.312 2.688-.312 2.688-1 5-2.765-3.457-4.85-7.143-7-11"/><path fill="#0f4458" d="M227 18c2.169.506 4 1 6 2 1.548 3.785 2.24 6.918 2 11l-2-1-.312-2.125c-.954-3.99-3.193-6.68-5.688-9.875"/><path fill="#b6bec6" d="M481 148a91 91 0 0 1 4 4v2l-3.875.188-2.18.105L477 154l-2-3 7 1z"/><path fill="#114750" d="M155 122c2.325 2.853 3.75 5.54 5 9l-4 4 .063-3.687c.005-3.233-.275-6.162-1.063-9.313"/><path fill="#12424d" d="m79 91 2 1q-1.714 2.504-3.437 5l-1.934 2.813L74 102h-1v-5h3l.375-2.437L77 92z"/><path fill="#9ba5ad" d="M410 145c1.333 2.667.671 4.167 0 7h6v2h-9c.557-3.344 1.352-6.033 3-9"/><path fill="#0c4a5b" d="M76 153c2.4 2.88 4.473 5.564 6 9l-3 2v-5h-2z"/><path fill="#0d474e" d="M69 134v3c-1.969 1.824-1.969 1.824-4.5 3.688l-2.531 1.886L60 144l-2-1z"/><path fill="#abb3b8" d="m254 93 15 2v1l-15 1z"/><path fill="#f5f8fa" d="M343 60h7v2h-5v5l-2-1z"/><path fill="#47b3c6" d="M207.813 21.25 210 22c-2.187 2.063-2.187 2.063-5 4-2.812-.25-2.812-.25-5-1 4.308-4.062 4.308-4.062 7.813-3.75"/><path fill="#134451" d="m183 99 7 1v3l-4 1z"/><path fill="#12444e" d="m113 88 2 1-6 9c-1-3-1-3-.062-5.187.35-.599.7-1.197 1.062-1.813h2z"/><path fill="#278884" d="M87 85a367 367 0 0 1 3.438 2.813l1.933 1.582C94 91 94 91 95 94h-2l-1.812-2.437C88.746 88.703 87.656 88.305 84 88z"/><path fill="#ced3d5" d="m551 65 1 4c-2.437 2.75-2.437 2.75-5 5l-2-1z"/><path fill="#288b88" d="m135 162 1 3c-1.215 1.824-1.215 1.824-2.937 3.688l-1.715 1.886L130 172l-2-1z"/><path fill="#3c898a" d="M31 161h2c-.125 2.25-.125 2.25-1 5-3.062 2.313-3.062 2.313-6 4 1.5-3.114 3.082-6.122 5-9"/><path fill="#11444f" d="m81 124 3 1 1 3-2.375.438c-2.59.44-2.59.44-4.625 1.562l-2-2c2.313-2.062 2.313-2.062 5-4"/><path fill="#16455a" d="m168 83 1 2c-2.657 3.739-4.581 5.65-9 7q1.436-1.688 2.875-3.375l1.617-1.898A76 76 0 0 1 168 83"/><path fill="#0f434c" d="M152 53h3c3.223 5.176 3.223 5.176 4 7l-1 3a1613 1613 0 0 1-3-4.437l-1.687-2.497C152 54 152 54 152 53"/><path fill="#174a61" d="M169 23h3l-.875 2c-1.36 3.625-2.231 7.233-3.125 11h-1c-.167-4.921-.248-8.503 2-13"/><path fill="#0e5065" d="M213 22c-1.37 3.161-1.99 3.993-5 6l-2-4c2.647-1.46 3.894-2 7-2"/><path fill="#173d49" d="m60 143 2 1c-3.323 3.938-3.323 3.938-6.75 4.25L53 148c2.363-2.526 3.665-3.888 7-5"/><path fill="#144853" d="M85 128c2.743 3.2 4.63 6.005 6 10-2.437-1.062-2.437-1.062-5-3-.812-3.687-.812-3.687-1-7"/><path fill="#c8d0d4" d="M419 125c.974 3.029 1.246 5.028 0 8-2.062 1.75-2.062 1.75-4 3q.716-2.188 1.438-4.375l.808-2.46C418 127 418 127 419 125"/><path fill="#144350" d="M58 120h2c-1.394 4.435-3.606 6.874-7 10 .506-2.169 1-4 2-6h2z"/><path fill="#24908a" d="M113 112c-1.312 3.937-2.92 6.227-6 9v-4h2v-4c2-1 2-1 4-1"/><path fill="#194f60" d="m150 101 1 2c-1.437 2.625-1.437 2.625-3 5l-4-1z"/><path fill="#1b9a8c" d="m147 68 2 1c.594 2.649.742 5.292 1 8h-3z"/><path fill="#41bac8" d="M170 36h3v2h6v1l-7 2-3-4z"/><path fill="#0d586a" d="M202.848 18.902 209 19c-1 2-1 2-4.062 3.125L202 23v-2l-2-1c1-1 1-1 2.848-1.098"/><path fill="#11424e" d="m37 150 2 1-6 9-1-3c3-5 3-5 5-7"/><path fill="#12424c" d="m47 136 2 1-5 7-1-4c1.938-2.25 1.938-2.25 4-4"/><path fill="#135166" d="M110 128c.688 1.813.688 1.813 1 4-1.645 2.468-2.803 2.95-5.687 3.688L103 136l1-3 5-2z"/><path fill="#45505d" d="m443 57 10 1v1h-9l-1 3-2-1z"/><path fill="#dee3e6" d="m375 84 3 1-4 7h-1c-.125-2.875-.125-2.875 0-6z"/><path fill="#cbd3d7" d="m253 61 2 1-2.375 2.313c-2.698 2.596-2.698 2.596-4.625 5.687.48-4.314 1.746-6.166 5-9"/><path fill="#3ebac9" d="M208 42h2c-1.527 3.436-3.6 6.12-6 9 .526-3.788 1.381-6.172 4-9"/><path fill="#1a4c61" d="m200 28 5 2-5 5a129 129 0 0 1-1-6z"/><path fill="#3bbbc9" d="m180 27-7 5-1-4c4.625-2.125 4.625-2.125 8-1"/><path fill="#42a8b8" d="m72 172 6 1c-1.25 1.5-1.25 1.5-3 3h-4z"/><path fill="#31b7c6" d="m90 153 4 2-1 5-1-4-5-1z"/><path fill="#259088" d="m54 143 4 1-6 5-1-2 1-2h2z"/><path fill="#4c5664" d="m377 85 2 4c-1.375 1.5-1.375 1.5-3 3h-2c1.875-5.875 1.875-5.875 3-7"/><path fill="#c7cfd5" d="M444 59h9v1h-8l-1 4h-2z"/><path fill="#35d4e1" d="M211 17h8l-1.937.938c-2 .897-2 .897-3.063 2.062q-1.99.544-4 1z"/></svg>